<?xml version="1.0" encoding="UTF-8" standalone="no"?>
<!DOCTYPE svg PUBLIC "-//W3C//DTD SVG 1.1//EN" "http://www.w3.org/Graphics/SVG/1.1/DTD/svg11.dtd">
<svg width="100%" height="100%" viewBox="0 0 1024 1024" version="1.1" xmlns="http://www.w3.org/2000/svg" xmlns:xlink="http://www.w3.org/1999/xlink" xml:space="preserve" xmlns:serif="http://www.serif.com/" style="fill-rule:evenodd;clip-rule:evenodd;stroke-linejoin:round;stroke-miterlimit:2;">
    <rect id="Artboard1" x="0" y="0" width="1024" height="1024" style="fill:rgb(14,23,43);"/>
    <g id="Artboard11" serif:id="Artboard1">
        <g transform="matrix(1.179018,0,0,1.179018,-64.94597,-255.475538)">
            <g transform="matrix(0.597944,0,0,0.597944,44.353454,259.52835)">
                <g transform="matrix(406.249489,0,0,406.249489,186,711)">
                    <path d="M0.384,0.01C0.319,0.01 0.26,-0.005 0.208,-0.034C0.156,-0.063 0.115,-0.105 0.085,-0.161C0.055,-0.216 0.04,-0.284 0.04,-0.363C0.04,-0.443 0.055,-0.511 0.086,-0.567C0.116,-0.623 0.158,-0.665 0.21,-0.694C0.262,-0.723 0.32,-0.737 0.384,-0.737C0.427,-0.737 0.467,-0.731 0.504,-0.72C0.541,-0.708 0.574,-0.69 0.602,-0.668C0.63,-0.645 0.653,-0.617 0.671,-0.584C0.689,-0.551 0.7,-0.513 0.705,-0.471L0.531,-0.471C0.528,-0.489 0.523,-0.505 0.515,-0.519C0.507,-0.533 0.497,-0.545 0.485,-0.555C0.473,-0.565 0.459,-0.573 0.442,-0.578C0.426,-0.583 0.408,-0.586 0.389,-0.586C0.353,-0.586 0.323,-0.577 0.297,-0.56C0.271,-0.542 0.251,-0.517 0.237,-0.484C0.223,-0.45 0.216,-0.41 0.216,-0.363C0.216,-0.315 0.223,-0.274 0.238,-0.241C0.252,-0.208 0.271,-0.183 0.297,-0.166C0.323,-0.15 0.353,-0.141 0.388,-0.141C0.407,-0.141 0.425,-0.144 0.441,-0.149C0.458,-0.155 0.472,-0.162 0.484,-0.172C0.497,-0.182 0.507,-0.195 0.515,-0.209C0.523,-0.223 0.529,-0.239 0.532,-0.257L0.706,-0.257C0.703,-0.224 0.694,-0.192 0.678,-0.161C0.663,-0.129 0.641,-0.101 0.614,-0.075C0.587,-0.049 0.554,-0.029 0.516,-0.013C0.478,0.002 0.434,0.01 0.384,0.01Z" style="fill:rgb(192,219,230);fill-rule:nonzero;"/>
                </g>
                <g transform="matrix(406.249489,0,0,406.249489,455.529148,711)">
                    <path d="M0.057,-0L0.057,-0.728L0.355,-0.728C0.409,-0.728 0.457,-0.718 0.496,-0.698C0.536,-0.679 0.566,-0.651 0.588,-0.614C0.609,-0.578 0.62,-0.535 0.62,-0.486C0.62,-0.436 0.609,-0.393 0.587,-0.358C0.565,-0.323 0.534,-0.296 0.494,-0.278C0.453,-0.259 0.405,-0.25 0.35,-0.25L0.16,-0.25L0.16,-0.387L0.318,-0.387C0.345,-0.387 0.368,-0.39 0.386,-0.397C0.404,-0.405 0.418,-0.415 0.427,-0.43C0.436,-0.445 0.441,-0.463 0.441,-0.486C0.441,-0.509 0.436,-0.528 0.427,-0.543C0.418,-0.558 0.404,-0.569 0.386,-0.576C0.368,-0.584 0.345,-0.588 0.318,-0.588L0.229,-0.588L0.229,-0L0.057,-0ZM0.456,-0L0.279,-0.332L0.464,-0.332L0.645,-0L0.456,-0Z" style="fill:rgb(192,219,230);fill-rule:nonzero;"/>
                </g>
                <g transform="matrix(406.249489,0,0,406.249489,700.13587,711)">
                    <path d="M0.057,-0L0.057,-0.728L0.246,-0.728L0.449,-0.399C0.462,-0.377 0.475,-0.355 0.488,-0.331C0.5,-0.308 0.513,-0.282 0.525,-0.254C0.537,-0.225 0.55,-0.193 0.563,-0.156L0.546,-0.156C0.544,-0.183 0.542,-0.213 0.54,-0.245C0.538,-0.278 0.536,-0.309 0.535,-0.34C0.533,-0.371 0.532,-0.397 0.532,-0.418L0.532,-0.728L0.709,-0.728L0.709,-0L0.519,-0L0.333,-0.301C0.316,-0.329 0.301,-0.355 0.288,-0.38C0.274,-0.405 0.261,-0.432 0.247,-0.46C0.234,-0.489 0.218,-0.523 0.2,-0.562L0.219,-0.562C0.222,-0.528 0.224,-0.494 0.226,-0.461C0.228,-0.428 0.23,-0.398 0.232,-0.37C0.233,-0.343 0.233,-0.32 0.233,-0.301L0.233,-0L0.057,-0Z" style="fill:rgb(192,219,230);fill-rule:nonzero;"/>
                </g>
                <g transform="matrix(406.249489,0,0,406.249489,982.749104,711)">
                    <path d="M0.023,-0L0.266,-0.728L0.496,-0.728L0.747,-0L0.553,-0L0.452,-0.318C0.436,-0.371 0.42,-0.427 0.405,-0.487C0.39,-0.547 0.375,-0.609 0.36,-0.673L0.398,-0.673C0.383,-0.608 0.369,-0.546 0.355,-0.486C0.342,-0.427 0.327,-0.371 0.312,-0.318L0.215,-0L0.023,-0ZM0.188,-0.155L0.188,-0.286L0.582,-0.286L0.582,-0.155L0.188,-0.155Z" style="fill:rgb(192,219,230);fill-rule:nonzero;"/>
                </g>
                <g transform="matrix(406.249489,0,0,406.249489,1295.450543,711)">
                </g>
            </g>
            <g transform="matrix(0.299431,0,0,0.299431,105.388608,582.241787)">
                <g transform="matrix(406.249489,0,0,406.249489,186,711)">
                    <path d="M0.338,0.01C0.277,0.01 0.224,0.001 0.179,-0.018C0.134,-0.036 0.099,-0.064 0.074,-0.101C0.049,-0.138 0.036,-0.184 0.035,-0.24L0.2,-0.24C0.202,-0.217 0.209,-0.197 0.22,-0.181C0.231,-0.165 0.247,-0.153 0.267,-0.145C0.286,-0.137 0.309,-0.133 0.335,-0.133C0.359,-0.133 0.38,-0.137 0.397,-0.143C0.414,-0.15 0.427,-0.159 0.437,-0.171C0.446,-0.182 0.45,-0.196 0.45,-0.211C0.45,-0.225 0.446,-0.237 0.438,-0.247C0.429,-0.257 0.416,-0.265 0.399,-0.273C0.382,-0.28 0.36,-0.287 0.333,-0.293L0.256,-0.311C0.193,-0.325 0.144,-0.349 0.108,-0.381C0.072,-0.414 0.054,-0.457 0.054,-0.512C0.054,-0.557 0.066,-0.597 0.091,-0.63C0.115,-0.664 0.149,-0.69 0.191,-0.709C0.234,-0.728 0.283,-0.737 0.338,-0.737C0.394,-0.737 0.443,-0.728 0.484,-0.709C0.525,-0.69 0.557,-0.663 0.58,-0.629C0.603,-0.595 0.615,-0.555 0.615,-0.511L0.449,-0.511C0.447,-0.537 0.437,-0.558 0.417,-0.572C0.398,-0.587 0.371,-0.594 0.337,-0.594C0.314,-0.594 0.295,-0.591 0.279,-0.585C0.264,-0.579 0.252,-0.571 0.244,-0.56C0.236,-0.55 0.232,-0.537 0.232,-0.524C0.232,-0.509 0.237,-0.496 0.246,-0.486C0.255,-0.476 0.267,-0.467 0.283,-0.46C0.3,-0.454 0.318,-0.448 0.34,-0.443L0.403,-0.428C0.438,-0.421 0.469,-0.41 0.497,-0.398C0.524,-0.385 0.548,-0.369 0.567,-0.352C0.586,-0.334 0.6,-0.313 0.61,-0.29C0.62,-0.266 0.625,-0.24 0.625,-0.211C0.625,-0.165 0.614,-0.126 0.591,-0.092C0.568,-0.059 0.535,-0.034 0.492,-0.017C0.449,0.001 0.398,0.01 0.338,0.01Z" style="fill:rgb(192,219,230);fill-rule:nonzero;"/>
                </g>
                <g transform="matrix(406.249489,0,0,406.249489,454.188236,711)">
                    <path d="M0.384,0.01C0.319,0.01 0.26,-0.005 0.208,-0.034C0.156,-0.063 0.115,-0.105 0.085,-0.161C0.055,-0.216 0.04,-0.284 0.04,-0.363C0.04,-0.443 0.055,-0.511 0.086,-0.567C0.116,-0.623 0.158,-0.665 0.21,-0.694C0.262,-0.723 0.32,-0.737 0.384,-0.737C0.427,-0.737 0.467,-0.731 0.504,-0.72C0.541,-0.708 0.574,-0.69 0.602,-0.668C0.63,-0.645 0.653,-0.617 0.671,-0.584C0.689,-0.551 0.7,-0.513 0.705,-0.471L0.531,-0.471C0.528,-0.489 0.523,-0.505 0.515,-0.519C0.507,-0.533 0.497,-0.545 0.485,-0.555C0.473,-0.565 0.459,-0.573 0.442,-0.578C0.426,-0.583 0.408,-0.586 0.389,-0.586C0.353,-0.586 0.323,-0.577 0.297,-0.56C0.271,-0.542 0.251,-0.517 0.237,-0.484C0.223,-0.45 0.216,-0.41 0.216,-0.363C0.216,-0.315 0.223,-0.274 0.238,-0.241C0.252,-0.208 0.271,-0.183 0.297,-0.166C0.323,-0.15 0.353,-0.141 0.388,-0.141C0.407,-0.141 0.425,-0.144 0.441,-0.149C0.458,-0.155 0.472,-0.162 0.484,-0.172C0.497,-0.182 0.507,-0.195 0.515,-0.209C0.523,-0.223 0.529,-0.239 0.532,-0.257L0.706,-0.257C0.703,-0.224 0.694,-0.192 0.678,-0.161C0.663,-0.129 0.641,-0.101 0.614,-0.075C0.587,-0.049 0.554,-0.029 0.516,-0.013C0.478,0.002 0.434,0.01 0.384,0.01Z" style="fill:rgb(192,219,230);fill-rule:nonzero;"/>
                </g>
                <g transform="matrix(406.249489,0,0,406.249489,756.217343,711)">
                    <path d="M0.057,-0L0.057,-0.728L0.229,-0.728L0.229,-0.442L0.519,-0.442L0.519,-0.728L0.692,-0.728L0.692,-0L0.519,-0L0.519,-0.301L0.229,-0.301L0.229,-0L0.057,-0Z" style="fill:rgb(192,219,230);fill-rule:nonzero;"/>
                </g>
                <g transform="matrix(406.249489,0,0,406.249489,1060.237983,711)">
                    <path d="M0.057,-0L0.057,-0.728L0.562,-0.728L0.562,-0.587L0.229,-0.587L0.229,-0.436L0.535,-0.436L0.535,-0.299L0.229,-0.299L0.229,-0.141L0.561,-0.141L0.561,-0L0.057,-0Z" style="fill:rgb(192,219,230);fill-rule:nonzero;"/>
                </g>
                <g transform="matrix(406.249489,0,0,406.249489,1308.042283,711)">
                    <path d="M0.324,-0L0.131,-0L0.131,-0.147L0.317,-0.147C0.359,-0.147 0.394,-0.154 0.423,-0.168C0.451,-0.183 0.473,-0.206 0.488,-0.237C0.503,-0.269 0.51,-0.311 0.51,-0.364C0.51,-0.416 0.502,-0.458 0.487,-0.49C0.473,-0.522 0.451,-0.545 0.422,-0.559C0.393,-0.573 0.357,-0.58 0.315,-0.58L0.127,-0.58L0.127,-0.728L0.324,-0.728C0.398,-0.728 0.462,-0.713 0.515,-0.684C0.569,-0.655 0.61,-0.613 0.639,-0.559C0.668,-0.504 0.682,-0.439 0.682,-0.364C0.682,-0.288 0.668,-0.223 0.639,-0.169C0.61,-0.114 0.569,-0.073 0.515,-0.044C0.462,-0.015 0.398,-0 0.324,-0ZM0.229,-0.728L0.229,-0L0.057,-0L0.057,-0.728L0.229,-0.728Z" style="fill:rgb(192,219,230);fill-rule:nonzero;"/>
                </g>
                <g transform="matrix(406.249489,0,0,406.249489,1601.525805,711)">
                    <path d="M0.363,0.009C0.302,0.009 0.248,-0.002 0.202,-0.024C0.156,-0.046 0.121,-0.077 0.095,-0.117C0.069,-0.157 0.057,-0.204 0.057,-0.258L0.057,-0.728L0.229,-0.728L0.229,-0.273C0.229,-0.247 0.235,-0.224 0.246,-0.205C0.257,-0.185 0.273,-0.169 0.293,-0.158C0.313,-0.147 0.337,-0.141 0.363,-0.141C0.39,-0.141 0.414,-0.147 0.434,-0.158C0.454,-0.169 0.47,-0.185 0.481,-0.205C0.492,-0.224 0.498,-0.247 0.498,-0.273L0.498,-0.728L0.67,-0.728L0.67,-0.258C0.67,-0.204 0.658,-0.157 0.632,-0.117C0.606,-0.077 0.57,-0.046 0.524,-0.024C0.478,-0.002 0.425,0.009 0.363,0.009Z" style="fill:rgb(192,219,230);fill-rule:nonzero;"/>
                </g>
                <g transform="matrix(406.249489,0,0,406.249489,1896.897658,711)">
                    <path d="M0.057,-0L0.057,-0.728L0.229,-0.728L0.229,-0.141L0.533,-0.141L0.533,-0L0.057,-0Z" style="fill:rgb(192,219,230);fill-rule:nonzero;"/>
                </g>
                <g transform="matrix(406.249489,0,0,406.249489,2126.60318,711)">
                    <path d="M0.057,-0L0.057,-0.728L0.562,-0.728L0.562,-0.587L0.229,-0.587L0.229,-0.436L0.535,-0.436L0.535,-0.299L0.229,-0.299L0.229,-0.141L0.561,-0.141L0.561,-0L0.057,-0Z" style="fill:rgb(192,219,230);fill-rule:nonzero;"/>
                </g>
                <g transform="matrix(406.249489,0,0,406.249489,2374.40748,711)">
                </g>
            </g>
        </g>
    </g>
</svg>
